<svg version="1.1" id="Layer_2" xmlns="http://www.w3.org/2000/svg" xmlns:xlink="http://www.w3.org/1999/xlink" x="0px" y="0px"
	 viewBox="0 0 271.6 100" style="enable-background:new 0 0 225.4 75.3;" xml:space="preserve">
<style type="text/css">
	.logodark0{fill:#000000;}
	.logodark1{fill:#000000;}
	.logodarkline0{fill:#fdd700;}
	.logodarkround2{fill:#55bde5;}
</style>
<path class="logodarkline0" d="M271,66.8v5.7H0v-5.7H271z"/>
<g id="svgGroup" stroke-linecap="round" fill-rule="evenodd" font-size="9pt">
<path class="logodark0" d="M 26.8 35.7 L 18.45 23.6 A 11.718 11.718 0 0 0 23.806 19.419 C 24.935 17.773 25.604 15.8 25.729 13.567 A 13.796 13.796 0 0 0 25.75 12.8 A 13.018 13.018 0 0 0 24.612 7.25 C 23.177 4.174 20.459 2.114 16.882 1.16 A 19.356 19.356 0 0 0 11.9 0.55 L 0 0.55 L 0 35.7 L 5.15 35.7 L 5.15 24.85 L 11.45 24.85 C 12.05 24.85 12.6 24.85 13.15 24.8 L 20.6 35.7 L 26.8 35.7 Z M 11.35 20.3 L 5.15 20.3 L 5.15 5.1 L 11.6 5.1 A 11.621 11.621 0 0 1 15.759 5.803 C 18.254 6.761 19.954 8.693 20.324 11.578 A 9.608 9.608 0 0 1 20.4 12.8 A 6.922 6.922 0 0 1 18.561 17.672 C 16.989 19.34 14.487 20.3 11.35 20.3 Z" id="0" vector-effect="non-scaling-stroke"/>
<path class="logodark0" d="M 48.6 12.7 L 48.6 24.9 A 7.332 7.332 0 0 1 48.596 25.045 C 48.506 27.582 47.099 30.119 44.475 31.013 A 6.556 6.556 0 0 1 42.35 31.35 A 5.588 5.588 0 0 1 38.751 30.14 C 37.867 29.421 37.206 28.404 36.824 27.147 A 9.283 9.283 0 0 1 36.45 24.45 L 36.45 12.7 L 31.5 12.7 L 31.5 25.45 A 12.151 12.151 0 0 0 32.549 30.559 C 34.157 34.049 37.496 36.15 41.75 36.15 C 44.48 36.15 46.677 35.115 48.161 33.637 A 7.77 7.77 0 0 0 49.3 32.2 L 49.45 35.7 L 53.6 35.7 L 53.6 12.7 L 48.6 12.7 Z" id="1" vector-effect="non-scaling-stroke"/>
<path class="logodark0" d="M 64.95 17.2 L 64.75 12.7 L 60.5 12.7 L 60.5 35.7 L 65.5 35.7 L 65.5 23.45 A 6.362 6.362 0 0 1 69.354 17.495 A 7.143 7.143 0 0 1 72.05 17 A 7.328 7.328 0 0 1 72.686 17.026 C 73.194 17.07 73.601 17.169 74.008 17.311 A 8.053 8.053 0 0 1 74.25 17.4 L 74.65 12.4 A 8.687 8.687 0 0 0 73.875 12.297 C 73.522 12.266 73.144 12.25 72.75 12.25 C 68.65 12.25 65.9 14.5 64.95 17.2 Z" id="2" vector-effect="non-scaling-stroke"/>
<path class="logodark0" d="M 95.9 12.7 L 95.7 15.75 C 94.218 14.056 92.018 12.721 89.132 12.352 A 12.86 12.86 0 0 0 87.5 12.25 A 11.049 11.049 0 0 0 76.659 21.276 A 13.708 13.708 0 0 0 76.35 24.2 A 12.871 12.871 0 0 0 78.11 30.842 A 10.731 10.731 0 0 0 87.45 36.15 A 11.132 11.132 0 0 0 90.862 35.637 C 92.399 35.145 93.684 34.328 94.712 33.317 A 9.971 9.971 0 0 0 95.8 32.05 L 96 35.7 L 100.4 35.7 L 100.4 12.7 L 95.9 12.7 Z M 81.445 25.459 A 7.057 7.057 0 0 0 88.45 31.6 A 8.334 8.334 0 0 0 89.564 31.527 C 91.76 31.231 93.503 30.057 94.551 28.335 A 7.9 7.9 0 0 0 95.65 24.2 C 95.6 19.95 92.75 16.8 88.45 16.8 A 6.955 6.955 0 0 0 82.64 19.863 A 7.669 7.669 0 0 0 81.35 24.2 A 8.282 8.282 0 0 0 81.445 25.459 Z" id="3" vector-effect="non-scaling-stroke"/>
<path class="logodark0" d="M 107.4 35.7 L 112.4 35.7 L 112.4 0 L 107.4 0 L 107.4 35.7 Z" id="4" vector-effect="non-scaling-stroke"/>
<path class="logodark1" d="M 151.6 7.4 L 154.05 3.5 C 151.571 1.467 148.109 0.123 142.982 0.1 A 29.884 29.884 0 0 0 142.85 0.1 A 15.241 15.241 0 0 0 137.331 1.072 C 133.424 2.59 130.95 5.77 130.95 9.8 C 130.95 15.173 134.511 17.714 140.163 19.371 A 41.472 41.472 0 0 0 141.55 19.75 A 31.736 31.736 0 0 1 144.185 20.505 C 146.161 21.178 147.515 21.951 148.355 22.937 A 4.786 4.786 0 0 1 149.45 26.2 A 5.017 5.017 0 0 1 148.665 29.003 C 147.59 30.644 145.485 31.538 142.833 31.597 A 12.703 12.703 0 0 1 142.55 31.6 A 16.766 16.766 0 0 1 132.744 28.461 A 16.003 16.003 0 0 1 132.2 28.05 L 129.55 32.25 C 132.56 34.53 136.443 35.895 141.201 36.118 A 29.975 29.975 0 0 0 142.6 36.15 A 15.096 15.096 0 0 0 148.621 34.987 C 152.275 33.397 154.65 30.226 154.65 25.8 C 154.65 20.042 151.113 17.346 145.121 15.549 A 42.955 42.955 0 0 0 143.7 15.15 C 140.135 14.223 137.815 13.347 136.777 11.796 A 3.91 3.91 0 0 1 136.15 9.55 A 4.378 4.378 0 0 1 138.855 5.434 C 139.601 5.08 140.478 4.842 141.457 4.728 A 12.059 12.059 0 0 1 142.85 4.65 A 18.203 18.203 0 0 1 145.648 4.849 A 12.939 12.939 0 0 1 151.6 7.4 Z" id="6" vector-effect="non-scaling-stroke"/>
<path class="logodark1" d="M 180.4 33.1 L 178.25 29.5 C 176.95 30.5 175.1 31.95 171.75 31.95 A 8.991 8.991 0 0 1 167.875 31.118 A 7.409 7.409 0 0 1 163.7 25.65 L 181.6 25.65 A 7.144 7.144 0 0 0 181.601 25.63 C 181.607 25.53 181.633 25.077 181.644 24.524 A 25.183 25.183 0 0 0 181.65 24 A 13.292 13.292 0 0 0 180.356 18.093 C 178.579 14.491 175.086 12.25 170.6 12.25 A 11.994 11.994 0 0 0 163.989 14.134 C 161.068 16.036 159.18 19.228 158.851 23.009 A 13.764 13.764 0 0 0 158.8 24.2 C 158.8 30.481 163.215 35.291 169.461 36.046 A 14.486 14.486 0 0 0 171.2 36.15 A 18.284 18.284 0 0 0 173.797 35.972 C 176.858 35.534 178.836 34.358 180.134 33.319 A 13.4 13.4 0 0 0 180.4 33.1 Z M 176.9 22.1 L 163.75 22.1 C 164.5 18.5 167.15 16.3 170.75 16.3 A 5.945 5.945 0 0 1 176.606 20.515 A 7.009 7.009 0 0 1 176.9 22.1 Z" id="7" vector-effect="non-scaling-stroke"/>
<path class="logodark1" d="M 191.45 17.2 L 191.25 12.7 L 187 12.7 L 187 35.7 L 192 35.7 L 192 23.45 A 6.362 6.362 0 0 1 195.854 17.495 A 7.143 7.143 0 0 1 198.55 17 A 7.328 7.328 0 0 1 199.186 17.026 C 199.694 17.07 200.101 17.169 200.508 17.311 A 8.053 8.053 0 0 1 200.75 17.4 L 201.15 12.4 A 8.687 8.687 0 0 0 200.375 12.297 C 200.022 12.266 199.644 12.25 199.25 12.25 C 195.15 12.25 192.4 14.5 191.45 17.2 Z" id="8" vector-effect="non-scaling-stroke"/>
<path class="logodark1" d="M 222.05 12.7 L 215.1 29.4 L 207.9 12.7 L 202.5 12.7 L 212.9 35.85 L 216.9 35.85 L 227.3 12.7 L 222.05 12.7 Z" id="9" vector-effect="non-scaling-stroke"/>
<path class="logodark1" d="M 250.85 33.1 L 248.7 29.5 C 247.4 30.5 245.55 31.95 242.2 31.95 A 8.991 8.991 0 0 1 238.325 31.118 A 7.409 7.409 0 0 1 234.15 25.65 L 252.05 25.65 A 7.144 7.144 0 0 0 252.051 25.63 C 252.057 25.53 252.083 25.077 252.094 24.524 A 25.183 25.183 0 0 0 252.1 24 A 13.292 13.292 0 0 0 250.806 18.093 C 249.029 14.491 245.536 12.25 241.05 12.25 A 11.994 11.994 0 0 0 234.439 14.134 C 231.518 16.036 229.63 19.228 229.301 23.009 A 13.764 13.764 0 0 0 229.25 24.2 C 229.25 30.481 233.665 35.291 239.911 36.046 A 14.486 14.486 0 0 0 241.65 36.15 A 18.284 18.284 0 0 0 244.247 35.972 C 247.308 35.534 249.286 34.358 250.584 33.319 A 13.4 13.4 0 0 0 250.85 33.1 Z M 247.35 22.1 L 234.2 22.1 C 234.95 18.5 237.6 16.3 241.2 16.3 A 5.945 5.945 0 0 1 247.056 20.515 A 7.009 7.009 0 0 1 247.35 22.1 Z" id="10" vector-effect="non-scaling-stroke"/>
<path class="logodark1" d="M 261.9 17.2 L 261.7 12.7 L 257.45 12.7 L 257.45 35.7 L 262.45 35.7 L 262.45 23.45 A 6.362 6.362 0 0 1 266.304 17.495 A 7.143 7.143 0 0 1 269 17 A 7.328 7.328 0 0 1 269.636 17.026 C 270.144 17.07 270.551 17.169 270.958 17.311 A 8.053 8.053 0 0 1 271.2 17.4 L 271.6 12.4 A 8.687 8.687 0 0 0 270.825 12.297 C 270.472 12.266 270.094 12.25 269.7 12.25 C 265.6 12.25 262.85 14.5 261.9 17.2 Z" id="11" vector-effect="non-scaling-stroke"/>
</g>
<g>
	<circle id="svg-ico" class="logodarkround2" cx="5.2" cy="69.6" r="7"/>
	
		<animateMotion  accumulate="none" additive="replace" begin="0s" calcMode="paced" dur="7s" fill="remove" path="M210,0 0 0 260,0" repeatCount="indefinite" restart="always">
		</animateMotion>
</g>
</svg>